<svg width="27" height="27" fill="none" xmlns="http://www.w3.org/2000/svg"><g clip-path="url(#clip0)"><path d="M13.988 21.35a3.414 3.414 0 01-2.143-.8l-3.96-3.487a1.744 1.744 0 00-2.252-.109l-5.63 4.142v2.688a1.308 1.308 0 001.343 1.38H21.29c.799 0 1.598-.581 1.598-1.38v-7.048l-7.156 4.142c-.526.316-1.13.48-1.744.472z" fill="url(#paint0_linear)"/><path d="M13.697 14.302a1.598 1.598 0 100-3.196 1.598 1.598 0 000 3.196z" fill="url(#paint1_linear)"/><path d="M26.666 4.676a1.344 1.344 0 00-.98-.545l-19.8-2.288a1.67 1.67 0 00-1.089.29 1.671 1.671 0 00-.545.945L3.925 5.91H21.29a3.124 3.124 0 013.051 3.016V21.75c0-.073.327-.145.472-.29.301-.237.476-.6.473-.982L26.993 5.73a1.417 1.417 0 00-.327-1.054z" fill="url(#paint2_linear)"/><path d="M21.29 7.364H1.346c-.8 0-1.344.763-1.344 1.562V19.28l4.795-3.487a3.197 3.197 0 014.032.182l3.996 3.487a1.852 1.852 0 002.144.182l7.919-4.614V8.926a1.67 1.67 0 00-1.598-1.562zm-7.593 8.392a3.052 3.052 0 110-6.103 3.052 3.052 0 010 6.103z" fill="url(#paint3_linear)"/></g><defs><linearGradient id="paint0_linear" x1="11.444" y1="16.594" x2="11.444" y2="25.165" gradientUnits="userSpaceOnUse"><stop stop-color="#FFDF68"/><stop offset="1" stop-color="#F4BE5B"/></linearGradient><linearGradient id="paint1_linear" x1="13.697" y1="11.105" x2="13.697" y2="14.302" gradientUnits="userSpaceOnUse"><stop stop-color="#FFDF68"/><stop offset="1" stop-color="#F4BE5B"/></linearGradient><linearGradient id="paint2_linear" x1="15.463" y1="1.837" x2="15.463" y2="21.75" gradientUnits="userSpaceOnUse"><stop stop-color="#FFDF68"/><stop offset="1" stop-color="#F4BE5B"/></linearGradient><linearGradient id="paint3_linear" x1="11.445" y1="7.364" x2="11.445" y2="19.901" gradientUnits="userSpaceOnUse"><stop stop-color="#FFDF68"/><stop offset="1" stop-color="#F4BE5B"/></linearGradient><clipPath id="clip0"><path fill="#fff" d="M0 0h27v27H0z"/></clipPath></defs></svg>