<svg width="26" height="26" fill="none" xmlns="http://www.w3.org/2000/svg"><g clip-path="url(#clip0)"><path d="M24.228 21.273h-4.136a4.733 4.733 0 01-4.728-4.727 4.733 4.733 0 014.728-4.728h4.136a.59.59 0 00.59-.59V9.454c0-1.24-.96-2.247-2.175-2.345L19.25 1.183a2.335 2.335 0 00-3.21-.865L4.408 7.091H2.365A2.366 2.366 0 000 9.455v14.181A2.366 2.366 0 002.365 26h20.09a2.366 2.366 0 002.364-2.364v-1.772a.59.59 0 00-.591-.591zm-4.245-16.43L21.27 7.09h-5.15l3.863-2.249zM6.757 7.09l9.88-5.751a1.14 1.14 0 01.877-.119c.302.081.553.276.71.55v.001L9.09 7.092H6.757z" fill="url(#paint0_linear)"/><path d="M24.227 13.001h-4.136a3.55 3.55 0 00-3.546 3.545 3.55 3.55 0 003.546 3.546h4.136c.978 0 1.773-.795 1.773-1.773v-3.545c0-.978-.795-1.773-1.773-1.773zm-4.136 4.727c-.652 0-1.182-.53-1.182-1.182a1.183 1.183 0 012.364 0c0 .652-.53 1.182-1.182 1.182z" fill="url(#paint1_linear)"/></g><defs><linearGradient id="paint0_linear" x1="12.41" y1="0" x2="12.41" y2="26" gradientUnits="userSpaceOnUse"><stop stop-color="#FFDF68"/><stop offset="1" stop-color="#F4BE5B"/></linearGradient><linearGradient id="paint1_linear" x1="21.273" y1="13.001" x2="21.273" y2="20.092" gradientUnits="userSpaceOnUse"><stop stop-color="#FFDF68"/><stop offset="1" stop-color="#F4BE5B"/></linearGradient><clipPath id="clip0"><path fill="#fff" d="M0 0h26v26H0z"/></clipPath></defs></svg>