<svg width="21" height="21" fill="none" xmlns="http://www.w3.org/2000/svg"><g clip-path="url(#clip0)"><path d="M13.532 12.315a1.22 1.22 0 00-1.22 1.218 1.22 1.22 0 101.22-1.219z" fill="url(#paint0_linear)"/><path d="M7.456 6.24a1.22 1.22 0 00-1.22 1.219 1.22 1.22 0 101.22-1.22z" fill="url(#paint1_linear)"/><path d="M10.502 0C4.712 0 .002 4.71.002 10.5S4.712 21 10.502 21s10.499-4.71 10.499-10.5S16.291 0 10.502 0zM7.457 4.926a2.536 2.536 0 012.532 2.532 2.536 2.536 0 01-2.532 2.533 2.536 2.536 0 01-2.533-2.533 2.536 2.536 0 012.533-2.532zm-.77 10.317a.654.654 0 01-.929 0 .657.657 0 010-.928l8.558-8.559a.657.657 0 01.929.93l-8.558 8.557zm6.846.823A2.536 2.536 0 0111 13.534 2.536 2.536 0 0113.533 11a2.536 2.536 0 012.532 2.533 2.536 2.536 0 01-2.532 2.532z" fill="url(#paint2_linear)"/></g><defs><linearGradient id="paint0_linear" x1="13.532" y1="12.315" x2="13.532" y2="14.753" gradientUnits="userSpaceOnUse"><stop stop-color="#FFDF68"/><stop offset="1" stop-color="#F4BE5B"/></linearGradient><linearGradient id="paint1_linear" x1="7.455" y1="6.239" x2="7.455" y2="8.677" gradientUnits="userSpaceOnUse"><stop stop-color="#FFDF68"/><stop offset="1" stop-color="#F4BE5B"/></linearGradient><linearGradient id="paint2_linear" x1="10.502" y1="0" x2="10.502" y2="21" gradientUnits="userSpaceOnUse"><stop stop-color="#FFDF68"/><stop offset="1" stop-color="#F4BE5B"/></linearGradient><clipPath id="clip0"><path fill="#fff" d="M0 0h21v21H0z"/></clipPath></defs></svg>