<svg width="23" height="23" fill="none" xmlns="http://www.w3.org/2000/svg"><path d="M19.75 3h-.81c.035.246.06.495.06.75V20c0 1.153-.44 2.203-1.156 3h1.906a.75.75 0 00.75-.75V3.75a.75.75 0 00-.75-.75z" fill="url(#paint0_linear)"/><path d="M13.75 0a.75.75 0 00-.75.75V3H3.25a.75.75 0 00-.75.75v8.846a36.923 36.923 0 012.25-.096 6.781 6.781 0 016.105 3.868A5.183 5.183 0 0113 15.554v1.52a3.719 3.719 0 00-1.938 1.062.75.75 0 01-1.26-.32A5.268 5.268 0 004.75 14c-.333 0-1.503.031-2.25.093v8.157c0 .414.336.75.75.75H14.5c1.654 0 3-1.346 3-3V3.75A3.754 3.754 0 0013.75 0zm-7.5 6h3a.75.75 0 010 1.5h-3a.75.75 0 010-1.5zM13 10.5H6.25a.75.75 0 010-1.5H13v1.5zm3 6.903A2.983 2.983 0 0014.5 17V1.628c.873.31 1.5 1.144 1.5 2.122v13.653z" fill="url(#paint1_linear)"/><defs><linearGradient id="paint0_linear" x1="19.172" y1="3" x2="19.172" y2="23" gradientUnits="userSpaceOnUse"><stop stop-color="#FFDF68"/><stop offset="1" stop-color="#F4BE5B"/></linearGradient><linearGradient id="paint1_linear" x1="10" y1="0" x2="10" y2="23" gradientUnits="userSpaceOnUse"><stop stop-color="#FFDF68"/><stop offset="1" stop-color="#F4BE5B"/></linearGradient></defs></svg>