<svg width="27" height="27" fill="none" xmlns="http://www.w3.org/2000/svg"><g clip-path="url(#clip0)"><path d="M27 18.273c0-3.35-1.922-6.34-4.801-7.796-.09 6.425-5.298 11.633-11.722 11.722A8.754 8.754 0 0018.272 27a8.695 8.695 0 004.441-1.213l4.249 1.175-1.175-4.248A8.697 8.697 0 0027 18.273z" fill="url(#paint0_linear)"/><path d="M20.62 10.31C20.62 4.625 15.993 0 10.31 0 4.625 0 0 4.625 0 10.31c0 1.852.493 3.656 1.43 5.24L.038 20.58l5.031-1.392a10.277 10.277 0 005.24 1.43c5.685 0 10.31-4.625 10.31-10.31zM8.727 7.91H7.146a3.168 3.168 0 013.164-3.164 3.168 3.168 0 013.164 3.164c0 .886-.375 1.737-1.03 2.335l-1.343 1.23v1.234H9.519v-1.93l1.858-1.701a1.584 1.584 0 00-1.067-2.75c-.873 0-1.582.71-1.582 1.582zm.79 6.381H11.1v1.582H9.519v-1.582z" fill="url(#paint1_linear)"/></g><defs><linearGradient id="paint0_linear" x1="18.738" y1="10.477" x2="18.738" y2="27" gradientUnits="userSpaceOnUse"><stop stop-color="#FFDF68"/><stop offset="1" stop-color="#F4BE5B"/></linearGradient><linearGradient id="paint1_linear" x1="10.31" y1="0" x2="10.31" y2="20.619" gradientUnits="userSpaceOnUse"><stop stop-color="#FFDF68"/><stop offset="1" stop-color="#F4BE5B"/></linearGradient><clipPath id="clip0"><path fill="#fff" d="M0 0h27v27H0z"/></clipPath></defs></svg>