<svg width="114" height="114" fill="none" xmlns="http://www.w3.org/2000/svg"><g filter="url(#filter0_d)"><circle cx="57" cy="52" r="27" fill="url(#paint0_linear)"/></g><g clip-path="url(#clip0)" fill="#000"><path d="M51.03 54.572l-1.166 1.167a.467.467 0 10.66.66l1.166-1.167 3.08 3.078-1.167 1.166a.467.467 0 10.66.66l1.193-1.192a3.106 3.106 0 004.041-.303L65.134 53l3.835-3.835c.948-.948 1.461-1.462 1.708-1.773l.032.031a.997.997 0 000-1.407l-6.728-6.725a.997.997 0 00-1.408 0l-6.772 6.772-3.033-3.033a.996.996 0 00-1.407 0l-3.74 3.737a3.113 3.113 0 000 4.397l3.41 3.408zm12.203-14.62a.063.063 0 01.088 0l6.728 6.727a.062.062 0 010 .088l-5.575 5.575-5.638 5.638a2.177 2.177 0 11-3.08-3.077l1.917-1.918c.938-.938 1.44-1.44 1.701-1.733a.46.46 0 00.12-.088h.003a.996.996 0 00-.004-1.403l-3.034-3.033 6.774-6.777zm-14.95 7.475l3.737-3.738a.063.063 0 01.088 0l6.728 6.728a.063.063 0 010 .087l-3.737 3.737a3.097 3.097 0 00-.908 2.17l-2.17-2.17-3.737-3.737a2.179 2.179 0 01-.002-3.077zm3.825 13.543l-.747.747a.467.467 0 00.659.663l.746-.747a.467.467 0 00-.66-.66l.002-.002zm-2.661 3.787a.464.464 0 00.33-.137l.746-.747a.467.467 0 00-.66-.66l-.746.747a.467.467 0 00.33.797zm-1.827.699l-.747.746a.467.467 0 10.66.66l.746-.746a.467.467 0 10-.66-.66zm1.41-8.224a.467.467 0 00-.66 0l-.747.747a.467.467 0 10.66.66l.746-.747a.467.467 0 000-.66zm-3.32 3.788c.123 0 .242-.05.33-.137l.746-.747a.467.467 0 00-.66-.66l-.746.746a.467.467 0 00.33.797zm-2.243 2.242c.123 0 .242-.05.33-.137l.746-.747a.467.467 0 10-.656-.66l-.747.746a.467.467 0 00.327.798z"/></g><defs><linearGradient id="paint0_linear" x1="57" y1="25" x2="57" y2="79" gradientUnits="userSpaceOnUse"><stop stop-color="#FFDF68"/><stop offset="1" stop-color="#F4BE5B"/></linearGradient><clipPath id="clip0"><path fill="#fff" transform="translate(43 39)" d="M0 0h28v28H0z"/></clipPath><filter id="filter0_d" x="0" y="0" width="114" height="114" filterUnits="userSpaceOnUse" color-interpolation-filters="sRGB"><feFlood flood-opacity="0" result="BackgroundImageFix"/><feColorMatrix in="SourceAlpha" values="0 0 0 0 0 0 0 0 0 0 0 0 0 0 0 0 0 0 127 0"/><feOffset dy="5"/><feGaussianBlur stdDeviation="15"/><feColorMatrix values="0 0 0 0 0.956863 0 0 0 0 0.745098 0 0 0 0 0.356863 0 0 0 1 0"/><feBlend in2="BackgroundImageFix" result="effect1_dropShadow"/><feBlend in="SourceGraphic" in2="effect1_dropShadow" result="shape"/></filter></defs></svg>