<svg width="114" height="114" fill="none" xmlns="http://www.w3.org/2000/svg"><g filter="url(#filter0_d)"><circle cx="57" cy="52" r="27" fill="url(#paint0_linear)"/></g><g clip-path="url(#clip0)" fill="#000"><path d="M45.832 54.261a.567.567 0 100 1.134.567.567 0 000-1.134z"/><path d="M69.033 56.225l-5.34 1.836a2.268 2.268 0 00-2.229-2.667h-3.667a.567.567 0 01-.278-.073l-2.993-1.683a3.968 3.968 0 00-1.944-.51h-4.016a1.702 1.702 0 00-1.601-1.132h-3.399a.566.566 0 00-.566.566v10.195c0 .313.254.567.566.567h3.399c.721 0 1.34-.454 1.586-1.09.64.08 1.383.269 1.849.548l2.962 1.778a7.222 7.222 0 006.703.382l10.572-4.655c1.17-.475 1.749-1.88 1.08-3.118-.493-.91-1.646-1.316-2.684-.944zm-21.502 5.402a.567.567 0 01-.566.564h-2.832v-9.063h2.832c.312 0 .566.254.566.567v7.932zm22.675-2.387l-.018.007L59.6 63.91a6.088 6.088 0 01-5.654-.321l-2.962-1.778c-.634-.38-1.543-.612-2.319-.705V54.26h3.918c.486 0 .966.126 1.389.364l2.992 1.683c.254.143.542.219.834.219h3.668a1.134 1.134 0 010 2.265h-5.758a.566.566 0 100 1.133h5.758c.371 0 .737-.092 1.061-.265l6.887-2.368c.508-.183 1.082 0 1.307.416.337.624.058 1.303-.514 1.532zm-10.71-6.086a.566.566 0 00.742 0c4.622-4.005 7.48-6.032 7.48-9.182 0-2.492-1.764-4.556-4.242-4.556-1.627 0-2.874.938-3.676 2.346-.801-1.405-2.046-2.346-3.676-2.346-1.898 0-3.484 1.229-4.041 3.132a.566.566 0 001.087.318c.412-1.408 1.572-2.318 2.954-2.318 1.615 0 2.749 1.435 3.13 2.771a.567.567 0 001.091 0c.008-.028.795-2.77 3.131-2.77 1.773 0 3.11 1.471 3.11 3.423 0 2.52-2.463 4.336-6.72 8.006-2.592-2.227-4.652-3.794-5.822-5.328a.566.566 0 10-.9.688c1.319 1.728 3.546 3.384 6.352 5.816z"/><path d="M52.573 44.406a.567.567 0 100 1.133.567.567 0 000-1.133z"/></g><defs><linearGradient id="paint0_linear" x1="57" y1="25" x2="57" y2="79" gradientUnits="userSpaceOnUse"><stop stop-color="#FFDF68"/><stop offset="1" stop-color="#F4BE5B"/></linearGradient><clipPath id="clip0"><path fill="#fff" transform="translate(43 38)" d="M0 0h29v29H0z"/></clipPath><filter id="filter0_d" x="0" y="0" width="114" height="114" filterUnits="userSpaceOnUse" color-interpolation-filters="sRGB"><feFlood flood-opacity="0" result="BackgroundImageFix"/><feColorMatrix in="SourceAlpha" values="0 0 0 0 0 0 0 0 0 0 0 0 0 0 0 0 0 0 127 0"/><feOffset dy="5"/><feGaussianBlur stdDeviation="15"/><feColorMatrix values="0 0 0 0 0.956863 0 0 0 0 0.745098 0 0 0 0 0.356863 0 0 0 1 0"/><feBlend in2="BackgroundImageFix" result="effect1_dropShadow"/><feBlend in="SourceGraphic" in2="effect1_dropShadow" result="shape"/></filter></defs></svg>