<svg width="114" height="114" fill="none" xmlns="http://www.w3.org/2000/svg"><g filter="url(#filter0_d)"><circle cx="57" cy="52" r="27" fill="url(#paint0_linear)"/></g><path d="M56.725 59.932c-.224-.046-1.272.134-2.27-.404a.41.41 0 10-.39.722 3.7 3.7 0 00.256.126c-.837.367-1.513 1.031-1.908 2.012-.375-.918-1.017-1.615-1.91-2.013.91-.406 1.543-1.116 1.91-2.013.078.194.15.328.153.334a.41.41 0 00.73-.373c0-.006-.497-.912-.439-2.118a.446.446 0 00-.366-.496.452.452 0 00-.52.343c-.03.129.182 2.344-1.425 3.372-1.047.667-2.235.46-2.456.51-.468.106-.468.775 0 .882.218.049 1.43-.158 2.477.523 1.554 1.013 1.383 3.17 1.393 3.266 0 .506.723.62.882.126.054-.168-.173-2.306 1.362-3.357 1.012-.693 2.265-.526 2.483-.55.5-.057.544-.785.038-.892zM70.56 51.93c-.75-.083-6.095.667-8.432-4.238-1.228-2.58-.913-4.919-.98-5.212a.505.505 0 00-.548-.392.5.5 0 00-.452.483v1.064c-.186 3.66-1.85 6.775-5.348 7.871-2.019.633-3.772.36-4.1.431-.524.12-.528.873.006.992.458.097 3.9-.461 6.575 1.76a.41.41 0 00.524-.632c-.918-.762-2.017-1.306-3.276-1.623 3.313-.834 5.346-3.198 6.124-6.51.772 3.291 2.789 5.677 6.137 6.507-3.315.83-5.376 3.192-6.141 6.495-.285-1.21-.76-2.37-1.474-3.381a.41.41 0 00-.67.473c.251.357.478.745.673 1.155 1.159 2.435.954 4.911.97 5.15.044.61 1.04.641 1.009-.113-.057-1.36.049-5.968 3.77-8.155 2.512-1.474 5.306-1.043 5.679-1.127.562-.128.501-.937-.046-.998zm-18.574-6.748c-.278-.058-2.467.33-3.446-1.644-.46-.925-.428-1.955-.421-2.084a.451.451 0 00-.887-.151c-.03.127.182 2.342-1.425 3.37-1.01.645-2.189.478-2.41.503-.5.057-.54.777-.046.89.238.053 1.424-.162 2.477.523 1.122.731 1.355 2.073 1.393 2.815.006.424-.013.474.02.577.062.19.235.317.431.317a.454.454 0 00.445-.37c.025-.141-.084-1.208.435-2.24a.41.41 0 10-.733-.369c-.052.103-.1.21-.144.32-.375-.918-1.017-1.616-1.91-2.014.91-.407 1.542-1.116 1.91-2.013.365.903.993 1.61 1.907 2.014-.09.04-.18.083-.269.131a.41.41 0 10.391.722c.968-.524 2.026-.382 2.245-.406.501-.057.54-.785.037-.891z" fill="#000"/><defs><linearGradient id="paint0_linear" x1="57" y1="25" x2="57" y2="79" gradientUnits="userSpaceOnUse"><stop stop-color="#FFDF68"/><stop offset="1" stop-color="#F4BE5B"/></linearGradient><filter id="filter0_d" x="0" y="0" width="114" height="114" filterUnits="userSpaceOnUse" color-interpolation-filters="sRGB"><feFlood flood-opacity="0" result="BackgroundImageFix"/><feColorMatrix in="SourceAlpha" values="0 0 0 0 0 0 0 0 0 0 0 0 0 0 0 0 0 0 127 0"/><feOffset dy="5"/><feGaussianBlur stdDeviation="15"/><feColorMatrix values="0 0 0 0 0.956863 0 0 0 0 0.745098 0 0 0 0 0.356863 0 0 0 1 0"/><feBlend in2="BackgroundImageFix" result="effect1_dropShadow"/><feBlend in="SourceGraphic" in2="effect1_dropShadow" result="shape"/></filter></defs></svg>