<svg width="114" height="114" fill="none" xmlns="http://www.w3.org/2000/svg"><g filter="url(#filter0_d)"><circle cx="57" cy="52" r="27" fill="url(#paint0_linear)"/></g><g clip-path="url(#clip0)" fill="#333"><path d="M64.213 59.188c.944 0 2.252-1.777 2.252-5.114 0-2.409-8.657-11.097-14.113-16.008a.612.612 0 01.818-.91c1.486 1.338 14.517 13.175 14.517 16.918 0 4.116-1.79 6.337-3.474 6.337-1.78 0-5.83.85-5.83 2.251 0 .85.591 1.777 1.164 2.675.711 1.115 1.447 2.268.918 3.325a.612.612 0 11-1.093-.547c.218-.437-.328-1.293-.856-2.12-.635-.998-1.356-2.127-1.356-3.333 0-2.87 5.893-3.474 7.053-3.474z"/><path d="M53.275 59.331a.613.613 0 01.108-.659c2.447-2.689 3.925-3.61 4.94-3.081 1.087.566.763 2.43.638 2.987a.61.61 0 11-1.193-.268c.162-.729.127-1.51-.005-1.632-.009-.002-.565-.138-2.502 1.794h1.162a.611.611 0 110 1.223h-2.588a.612.612 0 01-.56-.364zm-4.319-3.648a.611.611 0 111.169.36c-.893 2.9-.852 4.973.118 5.995 1.185 1.248 3.486.692 3.524.682a.612.612 0 01.302 1.185c-.055.015-.684.17-1.512.17-.995 0-2.276-.225-3.196-1.19-1.315-1.379-1.451-3.802-.405-7.202z"/></g><defs><linearGradient id="paint0_linear" x1="57" y1="25" x2="57" y2="79" gradientUnits="userSpaceOnUse"><stop stop-color="#FFDF68"/><stop offset="1" stop-color="#F4BE5B"/></linearGradient><clipPath id="clip0"><path fill="#fff" transform="matrix(-1 0 0 1 74 37)" d="M0 0h32v32H0z"/></clipPath><filter id="filter0_d" x="0" y="0" width="114" height="114" filterUnits="userSpaceOnUse" color-interpolation-filters="sRGB"><feFlood flood-opacity="0" result="BackgroundImageFix"/><feColorMatrix in="SourceAlpha" values="0 0 0 0 0 0 0 0 0 0 0 0 0 0 0 0 0 0 127 0"/><feOffset dy="5"/><feGaussianBlur stdDeviation="15"/><feColorMatrix values="0 0 0 0 0.956863 0 0 0 0 0.745098 0 0 0 0 0.356863 0 0 0 1 0"/><feBlend in2="BackgroundImageFix" result="effect1_dropShadow"/><feBlend in="SourceGraphic" in2="effect1_dropShadow" result="shape"/></filter></defs></svg>