<svg width="114" height="114" fill="none" xmlns="http://www.w3.org/2000/svg"><g filter="url(#filter0_d)"><circle cx="57" cy="52" r="27" fill="url(#paint0_linear)"/></g><path d="M66.313 44.094h-2.344v.937h2.343a2.346 2.346 0 002.344-2.343 2.346 2.346 0 00-2.344-2.344h-4.218v.937h4.218c.776 0 1.407.631 1.407 1.407 0 .775-.631 1.406-1.406 1.406zm0 8.437h-1.407v.938h1.406c.776 0 1.407-.631 1.407-1.407 0-.775-.631-1.406-1.406-1.406h-.938A2.347 2.347 0 0063.031 53a2.347 2.347 0 002.344 2.344h.469v-.938h-.469c-.775 0-1.406-.63-1.406-1.406 0-.775.63-1.406 1.406-1.406h.938a.469.469 0 010 .937z" fill="#000"/><path d="M70.531 52.063a3.285 3.285 0 00-3.281-3.282h-2.813A4.223 4.223 0 0060.22 53a4.223 4.223 0 004.218 4.219h1.407a2.815 2.815 0 012.812 2.812 2.815 2.815 0 01-2.812 2.813H59.28a2.346 2.346 0 00-2.343 2.343 2.346 2.346 0 002.343 2.344h.469v-.937h-.469a1.408 1.408 0 01-1.406-1.406c0-.776.63-1.407 1.406-1.407h6.563a3.754 3.754 0 003.75-3.75 3.754 3.754 0 00-3.75-3.75h-1.406A3.285 3.285 0 0161.156 53a3.285 3.285 0 013.282-3.281h2.812a2.346 2.346 0 012.344 2.343 2.346 2.346 0 01-2.344 2.344h-.469v.938h.469a3.285 3.285 0 003.281-3.282zm-18.75 6.093h.938v-.937h-.938c-1.034 0-1.875.84-1.875 1.875 0 1.034.841 1.875 1.875 1.875h.469c.877 0 1.7-.342 2.32-.962a3.26 3.26 0 00.961-2.32 3.286 3.286 0 00-3.281-3.28h-2.344a4.693 4.693 0 00-4.687 4.687 4.693 4.693 0 004.687 4.687h1.407c1.034 0 1.874.841 1.874 1.875v1.875h.938v-1.875a2.815 2.815 0 00-2.813-2.812h-1.406a3.754 3.754 0 01-3.75-3.75 3.754 3.754 0 013.75-3.75h2.344a2.347 2.347 0 012.344 2.343 2.33 2.33 0 01-.687 1.657 2.33 2.33 0 01-1.657.687h-.469a.938.938 0 010-1.875z" fill="#000"/><path d="M52.25 53.469a4.223 4.223 0 014.219 4.218h.937a5.162 5.162 0 00-5.156-5.156h-2.813a7.04 7.04 0 01-7.03-7.031h-.938c0 4.394 3.574 7.969 7.968 7.969h2.813z" fill="#000"/><path d="M49.438 50.656h4.687A2.347 2.347 0 0156.469 53h.937a3.285 3.285 0 00-3.281-3.281h-4.688A4.223 4.223 0 0145.22 45.5a4.223 4.223 0 014.218-4.219h3.282v-.937h-3.282a5.162 5.162 0 00-5.156 5.156 5.162 5.162 0 005.157 5.156z" fill="#000"/><path d="M59.281 61.906h6.563c1.034 0 1.875-.84 1.875-1.875a1.877 1.877 0 00-1.875-1.875h-1.406A5.162 5.162 0 0159.28 53a5.162 5.162 0 00-5.156-5.156h-4.688a2.346 2.346 0 01-2.343-2.344 2.346 2.346 0 012.343-2.344h5.279c.165.642.495 1.233.976 1.714a3.726 3.726 0 002.65 1.098h.472c1.292-.001 2.342-1.052 2.342-2.382 0-1.27-1.034-2.304-2.346-2.304a1.407 1.407 0 00.002 2.812h.47v-.938h-.469a.47.47 0 01-.47-.468c0-.258.21-.468.507-.468.755 0 1.369.613 1.369 1.405 0 .774-.63 1.404-1.405 1.405h-.471a2.793 2.793 0 01-1.988-.823 2.79 2.79 0 01-.824-1.988 2.815 2.815 0 012.813-2.813h7.968a3.286 3.286 0 013.282 3.282 3.286 3.286 0 01-3.281 3.28H63.03a1.878 1.878 0 00-1.875 1.876h.938c0-.517.42-.938.937-.938h3.282a4.223 4.223 0 004.218-4.218 4.223 4.223 0 00-4.219-4.22h-7.968a3.754 3.754 0 00-3.75 3.75h-5.157a3.285 3.285 0 00-3.28 3.282 3.285 3.285 0 003.28 3.281h4.688A4.223 4.223 0 0158.344 53a6.1 6.1 0 006.093 6.094h1.407a.938.938 0 010 1.875H59.28a4.223 4.223 0 00-4.218 4.218v2.344H56v-2.344a3.285 3.285 0 013.281-3.28z" fill="#000"/><path d="M49.438 45.031h4.218v-.937h-4.218c-.776 0-1.407.63-1.407 1.406 0 .775.631 1.406 1.407 1.406h1.406v-.937h-1.407a.469.469 0 010-.938zm9.843 1.875h.938v2.813h-.938v-2.813z" fill="#000"/><defs><linearGradient id="paint0_linear" x1="57" y1="25" x2="57" y2="79" gradientUnits="userSpaceOnUse"><stop stop-color="#FFDF68"/><stop offset="1" stop-color="#F4BE5B"/></linearGradient><filter id="filter0_d" x="0" y="0" width="114" height="114" filterUnits="userSpaceOnUse" color-interpolation-filters="sRGB"><feFlood flood-opacity="0" result="BackgroundImageFix"/><feColorMatrix in="SourceAlpha" values="0 0 0 0 0 0 0 0 0 0 0 0 0 0 0 0 0 0 127 0"/><feOffset dy="5"/><feGaussianBlur stdDeviation="15"/><feColorMatrix values="0 0 0 0 0.956863 0 0 0 0 0.745098 0 0 0 0 0.356863 0 0 0 1 0"/><feBlend in2="BackgroundImageFix" result="effect1_dropShadow"/><feBlend in="SourceGraphic" in2="effect1_dropShadow" result="shape"/></filter></defs></svg>