<svg width="114" height="114" fill="none" xmlns="http://www.w3.org/2000/svg"><g filter="url(#filter0_d)"><circle cx="57" cy="52" r="27" fill="url(#paint0_linear)"/></g><g clip-path="url(#clip0)" fill="#000"><path d="M51.178 58.298c4.677 0 7.252-2.747 7.252-7.736 0-4.67-6.61-12.095-6.892-12.409a.5.5 0 00-.72 0c-.281.314-6.892 7.74-6.892 12.41 0 4.988 2.576 7.735 7.252 7.735zm0-19.084c1.384 1.624 6.285 7.636 6.285 11.348 0 3.088-1.09 6.769-6.285 6.769-5.194 0-6.285-3.68-6.285-6.769 0-3.712 4.9-9.724 6.285-11.348zm13.537 20.051c2.765 0 4.351-1.845 4.351-5.064 0-3.022-3.834-7.176-3.997-7.352a.498.498 0 00-.708 0c-.163.176-3.997 4.33-3.997 7.352 0 3.219 1.585 5.064 4.35 5.064zm0-11.357c.932 1.085 3.384 4.143 3.384 6.293 0 2.719-1.138 4.097-3.384 4.097s-3.384-1.378-3.384-4.097c0-2.15 2.451-5.208 3.384-6.293zm-7.131 9.586c-.123.14-3.022 3.45-3.022 5.639 0 2.457 1.234 3.867 3.385 3.867 2.15 0 3.384-1.41 3.384-3.867 0-2.189-2.899-5.499-3.022-5.639a.5.5 0 00-.725 0zm.363 8.54c-1.604 0-2.418-.977-2.418-2.902 0-1.314 1.513-3.453 2.418-4.567.905 1.112 2.417 3.251 2.417 4.568 0 1.924-.814 2.9-2.417 2.9z"/><path d="M50.163 56.362a.487.487 0 00.531-.457.483.483 0 00-.434-.505 3.542 3.542 0 01-2.584-1.32c-1.285-1.676-.86-4.379-.856-4.406a.484.484 0 00-.953-.158c-.021.128-.501 3.136 1.039 5.149a4.468 4.468 0 003.257 1.697zm14.069.969a3.365 3.365 0 002.365-1.019 2.89 2.89 0 00.529-2.445.484.484 0 00-.953.16c.148.57.034 1.178-.31 1.656a2.407 2.407 0 01-1.631.681.484.484 0 000 .967zM57.68 64.15a.555.555 0 01-.268-.802.484.484 0 00-.865-.432 1.522 1.522 0 00.7 2.102.484.484 0 10.432-.866v-.002z"/></g><defs><linearGradient id="paint0_linear" x1="57" y1="25" x2="57" y2="79" gradientUnits="userSpaceOnUse"><stop stop-color="#FFDF68"/><stop offset="1" stop-color="#F4BE5B"/></linearGradient><clipPath id="clip0"><path fill="#fff" transform="translate(42 38)" d="M0 0h29v29H0z"/></clipPath><filter id="filter0_d" x="0" y="0" width="114" height="114" filterUnits="userSpaceOnUse" color-interpolation-filters="sRGB"><feFlood flood-opacity="0" result="BackgroundImageFix"/><feColorMatrix in="SourceAlpha" values="0 0 0 0 0 0 0 0 0 0 0 0 0 0 0 0 0 0 127 0"/><feOffset dy="5"/><feGaussianBlur stdDeviation="15"/><feColorMatrix values="0 0 0 0 0.956863 0 0 0 0 0.745098 0 0 0 0 0.356863 0 0 0 1 0"/><feBlend in2="BackgroundImageFix" result="effect1_dropShadow"/><feBlend in="SourceGraphic" in2="effect1_dropShadow" result="shape"/></filter></defs></svg>