<svg width="23" height="23" fill="none" xmlns="http://www.w3.org/2000/svg"><g clip-path="url(#clip0)"><path d="M23 9.139a2.878 2.878 0 00-2.875-2.875H12.32a2.878 2.878 0 00-2.875 2.875v4.928a2.878 2.878 0 002.875 2.875h2.465a.41.41 0 01.29.12l3.817 3.817v-3.526a.41.41 0 01.41-.41h.822A2.878 2.878 0 0023 14.066V9.14zm-2.054 5.339H11.5a.41.41 0 110-.822h9.446a.41.41 0 010 .822zm0-2.464H11.5a.41.41 0 110-.822h9.446a.41.41 0 010 .822zm0-2.465H11.5a.41.41 0 110-.821h9.446a.41.41 0 010 .821z" fill="url(#paint0_linear)"/><path d="M7.102 12.955a.41.41 0 01.29-.12h1.233V9.138a3.7 3.7 0 013.696-3.696h1.233v-.41a2.878 2.878 0 00-2.875-2.876H2.875A2.878 2.878 0 000 5.031V9.96a2.878 2.878 0 002.875 2.875h.821a.41.41 0 01.411.41v2.706l2.995-2.996zm-5.46-8.334h8.626a.41.41 0 010 .821H1.643a.41.41 0 010-.821zm0 2.464h6.162a.41.41 0 010 .821H1.643a.41.41 0 010-.821zm0 3.285a.41.41 0 010-.82h5.75a.41.41 0 010 .82h-5.75z" fill="url(#paint1_linear)"/></g><defs><linearGradient id="paint0_linear" x1="16.223" y1="6.264" x2="16.223" y2="20.879" gradientUnits="userSpaceOnUse"><stop stop-color="#FFDF68"/><stop offset="1" stop-color="#F4BE5B"/></linearGradient><linearGradient id="paint1_linear" x1="6.777" y1="2.156" x2="6.777" y2="15.95" gradientUnits="userSpaceOnUse"><stop stop-color="#FFDF68"/><stop offset="1" stop-color="#F4BE5B"/></linearGradient><clipPath id="clip0"><path fill="#fff" d="M0 0h23v23H0z"/></clipPath></defs></svg>