<svg width="20" height="20" fill="none" xmlns="http://www.w3.org/2000/svg"><g clip-path="url(#clip0)"><path d="M10.838.69c-.548-.935-1.128-.903-1.676 0-2.515 3.74-6.319 9.349-6.319 12.153 0 1.967.806 3.772 2.096 5.062A7.166 7.166 0 0010 20a7.166 7.166 0 005.062-2.095 7.166 7.166 0 002.095-5.062c0-2.837-3.804-8.414-6.319-12.153zm4.32 15.345a6.122 6.122 0 01-2.16 2.096c-.419.225-.934.096-1.16-.323-.258-.451-.097-.967.322-1.193a4.267 4.267 0 001.548-1.483 4.203 4.203 0 00.644-2.063c.033-.484.42-.838.903-.806.484.032.838.42.806.903a6.386 6.386 0 01-.903 2.869z" fill="url(#paint0_linear)"/></g><defs><linearGradient id="paint0_linear" x1="10" y1="0" x2="10" y2="20" gradientUnits="userSpaceOnUse"><stop stop-color="#FFDF68"/><stop offset="1" stop-color="#F4BE5B"/></linearGradient><clipPath id="clip0"><path fill="#fff" d="M0 0h20v20H0z"/></clipPath></defs></svg>