<svg width="19" height="19" fill="none" xmlns="http://www.w3.org/2000/svg"><g clip-path="url(#clip0)"><path d="M2.506 3.396a.34.34 0 01.157.089L7.5 8.323l.876-.876L3.538 2.61a.34.34 0 01-.089-.158l-.304-1.214L1.125.084l-.988.989 1.154 2.02 1.214.303z" fill="url(#paint0_linear)"/><path d="M6.807 14.43l7.677-7.676a.339.339 0 01.321-.09 3.367 3.367 0 004.197-3.47l-1.785 1.785a.338.338 0 01-.347.081l-2.03-.677a.338.338 0 01-.215-.213l-.677-2.031a.338.338 0 01.082-.347L15.816.007a3.369 3.369 0 00-3.472 4.197.338.338 0 01-.09.322l-7.676 7.676a.341.341 0 01-.321.089 3.408 3.408 0 102.461 2.461.339.339 0 01.09-.321zm-2.545 2.494H2.615l-.813-1.354.813-1.354h1.647l.813 1.354-.813 1.354zm1.307-3.962l7.446-7.446.478.478-7.446 7.446-.478-.478z" fill="url(#paint1_linear)"/><path d="M16.232 18.824a2.052 2.052 0 002.644-2.644l-2.644 2.644z" fill="url(#paint2_linear)"/><path d="M18.406 15.448l-3.801-3.803a1.056 1.056 0 01-1.49-1.487l-.538-.54-2.906 2.907.542.541a1.056 1.056 0 011.489 1.488l3.798 3.8c.041.041.085.08.13.117l2.893-2.894a2.065 2.065 0 00-.117-.13zm-2.007 1.378l-3.384-3.385.478-.479 3.385 3.385-.479.479z" fill="url(#paint3_linear)"/></g><defs><linearGradient id="paint0_linear" x1="4.257" y1=".084" x2="4.257" y2="8.323" gradientUnits="userSpaceOnUse"><stop stop-color="#FFDF68"/><stop offset="1" stop-color="#F4BE5B"/></linearGradient><linearGradient id="paint1_linear" x1="9.508" y1="0" x2="9.508" y2="19" gradientUnits="userSpaceOnUse"><stop stop-color="#FFDF68"/><stop offset="1" stop-color="#F4BE5B"/></linearGradient><linearGradient id="paint2_linear" x1="17.62" y1="16.18" x2="17.62" y2="18.955" gradientUnits="userSpaceOnUse"><stop stop-color="#FFDF68"/><stop offset="1" stop-color="#F4BE5B"/></linearGradient><linearGradient id="paint3_linear" x1="14.097" y1="9.619" x2="14.097" y2="18.471" gradientUnits="userSpaceOnUse"><stop stop-color="#FFDF68"/><stop offset="1" stop-color="#F4BE5B"/></linearGradient><clipPath id="clip0"><path fill="#fff" d="M0 0h19v19H0z"/></clipPath></defs></svg>