<svg width="22" height="22" fill="none" xmlns="http://www.w3.org/2000/svg"><path d="M20.235 5.663c-.026-.579-.026-1.131-.026-1.684a.775.775 0 00-.79-.79c-3.288 0-5.787-.946-7.866-2.972a.812.812 0 00-1.105 0C8.37 2.243 5.871 3.19 2.582 3.19a.775.775 0 00-.789.79c0 .552 0 1.104-.026 1.683-.105 5.524-.263 13.101 8.97 16.284l.264.053.263-.053c9.208-3.183 9.076-10.733 8.97-16.284zm-9.866 7.655a.849.849 0 01-.552.21h-.026a.74.74 0 01-.553-.262l-2.446-2.71 1.183-1.052 1.92 2.13 4.263-4.05 1.078 1.157-4.867 4.577z" fill="url(#paint0_linear)"/><defs><linearGradient id="paint0_linear" x1="11" y1="0" x2="11" y2="22" gradientUnits="userSpaceOnUse"><stop stop-color="#FFDF68"/><stop offset="1" stop-color="#F4BE5B"/></linearGradient></defs></svg>