<svg width="46" height="46" fill="none" xmlns="http://www.w3.org/2000/svg"><circle cx="23" cy="23" r="23" fill="#fff"/><path d="M34.609 15.526l-4.135-4.135H19.765v3.125h-1.953a1.955 1.955 0 00-1.953 1.953v6.479l-2.09 2.089a2.73 2.73 0 00-.763 1.484L12.76 28l-.417.416-.39-.39-1.724 1.724 5.24 5.24.554-.555c.302.69.99 1.174 1.79 1.174H28.75a1.955 1.955 0 001.953-1.953v-1.953h3.906V15.526zm-3.906-2.802l2.572 2.573h-2.572v-2.573zm-12.89 2.573h1.952v2.344h-1.953a1.173 1.173 0 01-1.172-1.172c0-.646.526-1.172 1.172-1.172zm-.897 8.937c-.092.093-.276.018-.276-.115v-6.098c.328.248.73.4 1.172.4h.39v4.527l-1.286 1.286zm-3.427 4.141l.288-1.726a1.95 1.95 0 01.545-1.06l1.537-1.537v.067a.944.944 0 001.61.667l2.33-2.33a.438.438 0 01.62.62l-3.274 3.273.553.552 3.273-3.273.781-.781a.438.438 0 01.62.62l-.782.78-3.273 3.274.552.552 3.274-3.273a.438.438 0 01.62.62l-.782.78-2.492 2.493.552.552 2.492-2.492a.438.438 0 01.62.62l-3.133 3.133c-.29.289-.656.478-1.06.545l-1.726.287-.984.985-3.354-3.354.593-.594zm-2.156 1.375l.62-.62 4.135 4.136-.62.62-4.135-4.136zm5.322 4.053l.538-.537-.391-.391.807-.807.594-.099v2.86h-.39a1.17 1.17 0 01-1.158-1.026zm13.267-.147c0 .646-.526 1.172-1.172 1.172h-9.766v-2.99l.105-.017a2.722 2.722 0 001.484-.764l3.133-3.132a1.22 1.22 0 00-.372-1.976c.213-.226.338-.528.338-.84 0-.497-.3-.924-.729-1.113a1.21 1.21 0 00.338-.84 1.22 1.22 0 00-1.22-1.218c-.31 0-.613.124-.838.337a1.22 1.22 0 00-1.976-.371l-.263.262v-3.744h8.203c.646 0 1.172.526 1.172 1.172v4.101l1.563 1.172v8.79zm-.782-10.351v-3.32h3.125v9.374h-1.562v-4.882l-1.563-1.172zm1.563 7.617v-.781h2.344V19.203H29.1a1.957 1.957 0 00-1.914-1.562h-6.64v-5.47h9.375v3.907h3.906v14.844h-3.125z" fill="#000"/><path d="M27.578 31.703c-.43 0-.781.35-.781.781v.782c0 .43.35.78.781.78h.781c.431 0 .782-.35.782-.78v-.782c0-.43-.35-.78-.782-.78h-.78zm.781 1.563h-.78l-.002-.782h.782v.782zm-3.125-1.563h-.78a.782.782 0 00-.782.781v.782c0 .43.35.78.781.78h.781c.431 0 .782-.35.782-.78v-.782c0-.43-.35-.78-.782-.78zm0 1.563h-.78l-.002-.782h.782v.782zm-3.906-20.313h7.813v.781h-7.813v-.78zm0 1.563h7.813v.78h-7.813v-.78zm0 1.562h7.813v.781h-7.813v-.78zm10.938 1.562h.78v.782h-.78v-.781zm-1.563 0h.781v.782h-.78v-.781zm-1.563 0h.782v.782h-.781v-.781zm-9.374 1.563h.78v.781h-.78v-.78zm1.562 0h.781v.781h-.78v-.78zm1.562 0h.782v.781h-.781v-.78z" fill="#000"/></svg>