<svg width="46" height="46" fill="none" xmlns="http://www.w3.org/2000/svg"><circle cx="23" cy="23" r="23" fill="#fff"/><g clip-path="url(#clip0)" fill="#000"><path d="M21.505 30.981v-.987c-.018-.755-.036-1.536-.253-2.35-.495-1.85-1.567-2.872-3.584-3.416l-.033-.009a1.56 1.56 0 01-.152-.045.844.844 0 01-.088-.127l-1.272-2.062a1.684 1.684 0 00-1.047-.757l-.305-3.934c-.072-.917-.779-1.61-1.646-1.613-.88 0-1.59.694-1.652 1.615l-.467 6.961-.001.015c-.068 1.841.58 2.428 1.56 3.316l.019.017c.123.112.269.237.423.369.848.724 2.13 1.82 2.13 2.875v.132c-.493.16-.85.622-.85 1.166v1.773c0 .676.55 1.225 1.225 1.225h.613a.488.488 0 100-.976h-.613a.252.252 0 01-.25-.249v-1.773c0-.134.115-.248.25-.248h5.617c.135 0 .25.114.25.248v1.773a.25.25 0 01-.25.249h-.617a.488.488 0 100 .976h.617c.676 0 1.226-.55 1.226-1.225v-1.773c0-.544-.357-1.006-.85-1.166zm-.976-.059h-4.416v-.073c0-1.505-1.487-2.776-2.471-3.618a19.38 19.38 0 01-.402-.35l-.02-.017c-.91-.826-1.289-1.168-1.24-2.549l.468-6.954c.027-.4.318-.703.676-.703.406 0 .646.36.674.712l.303 3.914a1.688 1.688 0 00-.858 2.473l2.061 3.344a.488.488 0 00.832-.512l-2.061-3.344a.715.715 0 011.217-.748l1.272 2.062c.254.415.444.503.817.603l.032.009c1.938.522 2.56 1.467 2.896 2.725.186.7.203 1.419.22 2.116v.91zm15.466-6.65v-.015l-.468-6.962c-.063-.92-.772-1.614-1.653-1.614-.866.002-1.573.696-1.645 1.614l-.305 3.933c-.421.1-.803.36-1.047.756l-1.272 2.064a.825.825 0 01-.088.126c-.026.011-.095.03-.152.045l-.032.009c-2.018.544-3.09 1.566-3.585 3.416-.217.814-.235 1.595-.253 2.35v.987c-.493.16-.85.622-.85 1.166v1.773c0 .675.55 1.225 1.226 1.225h5.617c.676 0 1.226-.55 1.226-1.225v-1.773a1.23 1.23 0 00-.85-1.166v-.132c0-1.055 1.281-2.15 2.129-2.876.154-.131.3-.256.423-.368l.02-.017c.98-.888 1.627-1.475 1.56-3.316zm-4.258 9.648a.252.252 0 01-.25.249h-5.616a.252.252 0 01-.25-.25v-1.772c0-.134.115-.248.25-.248h5.617c.135 0 .25.114.25.248v1.773zm2.043-7.056l-.02.017c-.113.103-.253.223-.402.35-.984.841-2.47 2.113-2.47 3.618v.073H26.47v-.91c.017-.697.034-1.417.22-2.116.337-1.258.958-2.203 2.897-2.726l.031-.008c.373-.1.563-.188.817-.602l1.273-2.063a.714.714 0 01.645-.339h.002a.711.711 0 01.57 1.086l-2.062 3.345a.488.488 0 10.832.512l2.06-3.344a1.67 1.67 0 00.205-1.276 1.679 1.679 0 00-1.062-1.197l.303-3.913c.028-.354.269-.712.673-.713.36 0 .65.302.677.703l.468 6.954c.049 1.38-.33 1.723-1.24 2.55zm-4.44-7.559c1.694-1.752 1.694-4.604 0-6.357-.722-.747-1.711-1.134-2.787-1.09a4.335 4.335 0 00-2.774 1.179l-.052.048c-.078.073-.162.151-.227.208a8.922 8.922 0 01-.227-.208l-.052-.048a4.335 4.335 0 00-2.774-1.18c-1.075-.043-2.065.344-2.786 1.09-1.696 1.754-1.696 4.606 0 6.358l.012.012 5.488 5.292a.487.487 0 00.678 0l5.49-5.292a.354.354 0 00.011-.012zM23.5 23.58l-2.208-2.13a2.224 2.224 0 011.065-1.696 2.246 2.246 0 002.285 0 2.227 2.227 0 011.066 1.697L23.5 23.58zm-1.282-5.772a1.282 1.282 0 012.564 0 1.283 1.283 0 01-2.564 0zm4.316 2.848a3.215 3.215 0 00-1.161-1.588c.243-.36.385-.794.385-1.26a2.26 2.26 0 00-2.258-2.256 2.26 2.26 0 00-2.259 2.256c0 .466.143.9.386 1.26a3.209 3.209 0 00-1.16 1.587l-2.11-2.034c-1.328-1.378-1.326-3.617.006-4.993 1.062-1.1 2.942-1.044 4.192.124l.05.047c.339.316.562.525.895.525.333 0 .556-.209.894-.525l.051-.047c1.25-1.168 3.13-1.224 4.193-.124 1.33 1.376 1.332 3.615.006 4.993l-2.11 2.035z"/><path d="M18.318 34.17a.488.488 0 100 .976h.003a.487.487 0 10-.003-.977z"/></g><defs><clipPath id="clip0"><path fill="#fff" transform="translate(11 11)" d="M0 0h25v25H0z"/></clipPath></defs></svg>