<svg width="46" height="46" fill="none" xmlns="http://www.w3.org/2000/svg"><circle cx="23" cy="23" r="23" fill="#fff"/><path d="M34.267 13.3H14.333c-.957 0-1.733.776-1.733 1.733V28.9h-2.167a.433.433 0 00-.433.433c0 .957.776 1.734 1.733 1.734H24.3v5.2a.433.433 0 00.74.306l2.293-2.294 2.294 2.294a.433.433 0 00.74-.306v-5.2h1.3c.957 0 1.733-.777 1.733-1.734V15.467h2.167a.434.434 0 00.433-.434c0-.957-.776-1.733-1.733-1.733zm-1.734 1.733V28.9H30.8v.867h1.617a.867.867 0 01-.75.433h-1.3v-.433H29.5v5.453l-1.86-1.86a.433.433 0 00-.613 0l-1.86 1.86v-5.453H24.3v.433H11.733a.867.867 0 01-.75-.433h12.884V28.9h-10.4V15.033c0-.478.388-.867.866-.867h18.441a1.71 1.71 0 00-.24.867zm.984-.433a.867.867 0 011.5 0h-1.5z" fill="#333"/><path d="M31.419 26.861l-.556-.994.558-.994a.433.433 0 00-.197-.607l-1.035-.473-.133-1.131a.433.433 0 00-.515-.374l-1.117.221-.772-.837a.446.446 0 00-.632-.004l-.005.005-.772.836-1.117-.221a.433.433 0 00-.515.374l-.133 1.13-1.035.475a.433.433 0 00-.197.607l.558.993-.558.993a.433.433 0 00.198.607l1.034.475.133 1.131a.433.433 0 00.515.374l1.117-.221.773.837a.433.433 0 00.636 0l.772-.837 1.117.221a.427.427 0 00.513-.374l.133-1.13 1.034-.475a.433.433 0 00.198-.607zm-1.43-.783l.446.796-.829.38a.433.433 0 00-.25.343l-.106.907-.895-.177a.427.427 0 00-.403.13l-.619.67-.618-.67a.433.433 0 00-.402-.13l-.896.177-.107-.907a.433.433 0 00-.25-.343l-.828-.38.446-.795a.425.425 0 000-.424v.002l-.446-.796.829-.38a.433.433 0 00.25-.343l.106-.907.896.177c.147.03.3-.02.402-.13l.619-.672.618.67a.43.43 0 00.402.13l.896-.177.107.907a.43.43 0 00.25.343l.828.38-.446.795a.433.433 0 000 .424z" fill="#333"/><path d="M27.334 23.7a2.167 2.167 0 100 4.334 2.167 2.167 0 000-4.334zm0 3.467a1.3 1.3 0 110-2.6 1.3 1.3 0 010 2.6zM26.466 15.9h-6.933v.867h6.933V15.9zm4.334 2.6H15.2v.867h15.6V18.5zm0 1.733H15.2v.867h15.6v-.867zm-9.533 5.633h-5.633v.867h5.633v-.867z" fill="#333"/></svg>