<svg width="92" height="92" fill="none" xmlns="http://www.w3.org/2000/svg"><circle cx="46" cy="46" r="38" fill="url(#paint0_linear)"/><circle cx="46" cy="46" r="45.5" stroke="url(#paint1_linear)" stroke-dasharray="4 4"/><path d="M30.935 55.924c-1.994-2.29-2.99-5.35-2.99-9.177 0-3.828.996-6.882 2.99-9.16 1.994-2.29 4.438-3.436 7.332-3.436 2.893 0 5.337 1.145 7.331 3.435 1.994 2.28 2.99 5.333 2.99 9.16 0 3.829-.996 6.888-2.99 9.178-1.994 2.279-4.438 3.418-7.331 3.418-2.894 0-5.338-1.14-7.332-3.418zm11.895-2.495c1.276-1.63 1.914-3.857 1.914-6.682 0-2.826-.638-5.048-1.914-6.666-1.265-1.617-2.786-2.426-4.563-2.426-1.778 0-3.304.809-4.58 2.426-1.265 1.618-1.897 3.84-1.897 6.666 0 2.825.632 5.053 1.897 6.682 1.276 1.617 2.802 2.426 4.58 2.426 1.777 0 3.298-.808 4.563-2.426zm14.509-18.936h2.974V59h-3.846V40.458h-4.375v-2.632c1.47-.16 2.587-.507 3.35-1.043.775-.547 1.407-1.31 1.897-2.29z" fill="#fff"/><defs><linearGradient id="paint0_linear" x1="46" y1="8" x2="46" y2="84" gradientUnits="userSpaceOnUse"><stop stop-color="#FFDF68"/><stop offset="1" stop-color="#F4BE5B"/></linearGradient><linearGradient id="paint1_linear" x1="46" y1="0" x2="46" y2="92" gradientUnits="userSpaceOnUse"><stop stop-color="#FFDF68"/><stop offset="1" stop-color="#F4BE5B"/></linearGradient></defs></svg>