<svg width="30" height="30" fill="none" xmlns="http://www.w3.org/2000/svg"><circle cx="15" cy="15" r="14.75" stroke="#039BE5" stroke-width=".5"/><g clip-path="url(#clip0)"><path d="M12.278 18.12l-.264 3.723c.378 0 .542-.162.739-.358l1.775-1.696 3.679 2.694c.674.376 1.15.178 1.332-.621l2.414-11.315h.001c.214-.998-.36-1.388-1.018-1.143L6.743 14.838c-.969.376-.954.916-.165 1.16l3.629 1.13 8.428-5.275c.397-.262.758-.117.461.146l-6.818 6.122z" fill="#039BE5"/></g><defs><clipPath id="clip0"><path fill="#fff" transform="translate(6 8)" d="M0 0h16v16H0z"/></clipPath></defs></svg>