<svg width="30" height="30" fill="none" xmlns="http://www.w3.org/2000/svg"><g clip-path="url(#clip0)"><path d="M16.2 7h-3.4a5.957 5.957 0 00-5.95 5.95v2.551a5.953 5.953 0 003.4 5.378v2.84c0 .246.308.375.483.2l2.468-2.467h3c3.28 0 5.95-2.67 5.95-5.95V12.95a5.957 5.957 0 00-5.95-5.951z" fill="#665CAC"/><path d="M11.1 20.879A5.953 5.953 0 017.7 15.5v-2.55A5.956 5.956 0 0113.65 7h-.85a5.957 5.957 0 00-5.95 5.95v2.551a5.953 5.953 0 003.4 5.378v2.84c0 .246.308.375.483.2l.367-.366v-2.674z" fill="#523494"/><path d="M18.778 17.562l-.255-1.38a.283.283 0 00-.223-.226l-2.003-.401a.284.284 0 00-.256.077l-.815.815c-1.371-.615-2.132-1.378-2.802-2.808l.811-.812a.283.283 0 00.078-.256l-.4-2.003a.283.283 0 00-.227-.224l-1.38-.254a.282.282 0 00-.115.002 1.977 1.977 0 00-.961.531c-.459.458-.634 1.127-.507 1.934.213 1.355.877 3.24 2.102 4.47l.017.017c1.228 1.223 3.114 1.887 4.469 2.1.17.027.335.04.493.04.587 0 1.08-.185 1.44-.546a1.97 1.97 0 00.532-.962.287.287 0 00.002-.114z" fill="#fff"/><path d="M12.959 13.104l.277-.277-.277.277zm3.081 2.527l-.28.28.28-.28zm1.298 3.019c-.158 0-.322-.014-.493-.04-1.355-.214-3.24-.878-4.469-2.101l-.017-.017c-1.224-1.23-1.888-3.115-2.101-4.47-.103-.652-.008-1.214.274-1.647-.108.072-.21.155-.302.247-.459.459-.634 1.127-.507 1.934.213 1.355.877 3.24 2.102 4.47l.017.017c1.228 1.224 3.114 1.888 4.469 2.1.17.028.335.041.493.041.587 0 1.08-.185 1.44-.547a1.99 1.99 0 00.248-.302c-.32.208-.71.315-1.154.315z" fill="#E5E5E5"/><path d="M15.067 11.817a.283.283 0 000 .567c.625 0 1.133.509 1.133 1.134 0 .154.129.283.283.283a.286.286 0 00.284-.283c0-.938-.763-1.7-1.7-1.7z" fill="#fff"/><path d="M15.067 10.684c-.105 0-.21.005-.315.017a.283.283 0 10.063.563 2.27 2.27 0 012.505 2.505.286.286 0 00.25.313.286.286 0 00.313-.25 2.837 2.837 0 00-2.816-3.148z" fill="#fff"/><path d="M15.067 9.55a4.04 4.04 0 00-.305.012.283.283 0 00.043.566 3.404 3.404 0 013.571 4.175.286.286 0 00.201.338.286.286 0 00.351-.208 3.972 3.972 0 00-3.861-4.882z" fill="#fff"/></g><circle cx="15" cy="15" r="14.75" stroke="#665CAC" stroke-width=".5"/><defs><clipPath id="clip0"><path fill="#fff" transform="translate(6 7)" d="M0 0h17v17H0z"/></clipPath></defs></svg>