<svg width="30" height="30" fill="none" xmlns="http://www.w3.org/2000/svg"><circle cx="15" cy="15" r="14.75" stroke="#4CAF50" stroke-width=".5"/><g clip-path="url(#clip0)"><path d="M14.996 7.006a7.995 7.995 0 00-6.73 12.31l-1.244 3.227a.333.333 0 00.423.434l3.332-1.19a7.995 7.995 0 104.219-14.781z" fill="#4CAF50"/><path d="M18.808 16.366s-.817-.4-1.328-.666c-.578-.298-1.258.26-1.577.577a4.007 4.007 0 01-1.338-.849 4.006 4.006 0 01-.848-1.337c.317-.32.873-1 .576-1.578-.263-.512-.666-1.327-.666-1.328a.333.333 0 00-.297-.183h-.666a2.007 2.007 0 00-1.666 1.999c0 1.046 1.252 3.055 2.096 3.9.844.845 2.854 2.096 3.9 2.096a2.008 2.008 0 002-1.665v-.667a.333.333 0 00-.186-.299z" fill="#FAFAFA"/></g><defs><clipPath id="clip0"><path fill="#fff" transform="translate(7 7)" d="M0 0h16v16H0z"/></clipPath></defs></svg>