<svg width="116" height="19" fill="none" xmlns="http://www.w3.org/2000/svg"><path d="M4.005.495V18H.624V.495h3.38zM14.137 18v-1.245a6.241 6.241 0 01-.415.427c-.171.163-.55.383-1.136.66a4.346 4.346 0 01-1.83.402c-1.221 0-2.214-.338-2.98-1.013-.764-.684-1.147-1.51-1.147-2.478 0-1.001.322-1.835.965-2.502.643-.668 1.53-1.103 2.66-1.307l3.883-.696c0-.512-.188-.931-.562-1.257-.374-.325-.895-.488-1.562-.488a3.56 3.56 0 00-1.514.317c-.456.204-.777.415-.964.635l-.281.293L7.386 7.88l.196-.256c.09-.114.28-.305.573-.574.301-.268.627-.504.977-.708.35-.211.81-.403 1.38-.573a5.79 5.79 0 011.745-.269c1.546 0 2.808.464 3.784 1.392.977.92 1.465 2.079 1.465 3.479V18h-3.37zm-2.503-2.502c.765 0 1.371-.24 1.82-.72.455-.489.683-1.164.683-2.027v-.378l-2.747.5c-.92.147-1.38.606-1.38 1.38 0 .83.542 1.245 1.624 1.245zM41.14 18v-6.75c0-.782-.188-1.392-.562-1.832a1.793 1.793 0 00-1.44-.67c-.651 0-1.188.255-1.612.768-.423.505-.634 1.209-.634 2.112V18h-3.37v-6.75c0-.782-.19-1.392-.573-1.832a1.781 1.781 0 00-1.428-.67c-.651 0-1.193.255-1.624.768-.423.505-.635 1.209-.635 2.112V18h-3.369V5.744h3.37v1.502c.08-.13.207-.29.378-.476.17-.196.533-.456 1.086-.782A3.52 3.52 0 0132.52 5.5c.48 0 .932.077 1.355.232.424.146.761.321 1.014.525.252.195.468.399.647.61.187.204.313.383.378.537l.098.22c.032-.049.085-.122.158-.22.082-.106.249-.276.5-.512.261-.245.538-.46.831-.647.293-.196.675-.367 1.147-.513a4.82 4.82 0 011.49-.232c1.35 0 2.417.456 3.198 1.367.79.904 1.184 2.238 1.184 4.004V18h-3.381zm13.379 0v-1.245a6.247 6.247 0 01-.416.427c-.17.163-.549.383-1.135.66a4.346 4.346 0 01-1.83.402c-1.221 0-2.214-.338-2.98-1.013-.764-.684-1.147-1.51-1.147-2.478 0-1.001.322-1.835.965-2.502.642-.668 1.53-1.103 2.66-1.307l3.883-.696c0-.512-.188-.931-.562-1.257-.374-.325-.895-.488-1.562-.488a3.55 3.55 0 00-1.514.317c-.456.204-.777.415-.965.635l-.28.293-1.868-1.868.195-.256c.09-.114.281-.305.574-.574.301-.268.627-.504.977-.708.35-.211.81-.403 1.38-.573a5.79 5.79 0 011.745-.269c1.546 0 2.807.464 3.784 1.392.976.92 1.465 2.079 1.465 3.479V18h-3.37zm-2.503-2.502c.765 0 1.371-.24 1.819-.72.456-.489.684-1.164.684-2.027v-.378l-2.747.5c-.92.147-1.38.606-1.38 1.38 0 .83.542 1.245 1.624 1.245zm12.5-9.754v1.502c.098-.13.236-.29.415-.476.18-.196.57-.456 1.172-.782A4.018 4.018 0 0168.02 5.5c1.4 0 2.539.484 3.417 1.453.888.968 1.331 2.274 1.331 3.918V18h-3.37v-6.75c0-.75-.223-1.351-.67-1.807-.44-.464-1.01-.696-1.71-.696-.764 0-1.375.252-1.83.757-.448.496-.672 1.204-.672 2.124V18h-3.369V5.744h3.37zM77.223 16.34c-1.31-1.278-1.966-2.767-1.966-4.468 0-1.7.655-3.186 1.966-4.455 1.31-1.278 2.864-1.917 4.663-1.917.635 0 1.237.09 1.806.269.578.17 1.05.378 1.416.622.367.236.692.476.977.72.285.244.492.456.623.635l.183.256-2.124 2.124a3.5 3.5 0 00-.33-.451c-.147-.187-.472-.427-.977-.72a2.988 2.988 0 00-1.574-.452c-.887 0-1.652.33-2.295.989-.635.659-.952 1.456-.952 2.392 0 .928.321 1.721.964 2.38.643.66 1.404.99 2.283.99.553 0 1.078-.135 1.574-.403.505-.269.871-.538 1.1-.806l.329-.415 2.002 2.124c-.05.065-.118.159-.208.28-.081.115-.277.314-.586.599-.31.277-.643.525-1 .744-.359.212-.827.411-1.405.599a5.992 5.992 0 01-1.806.268c-1.799 0-3.353-.635-4.663-1.904zM92.653.495v6.75a6.72 6.72 0 01.402-.475c.18-.196.57-.456 1.172-.782a4.018 4.018 0 011.917-.488c1.4 0 2.539.484 3.417 1.453.888.968 1.331 2.274 1.331 3.918V18h-3.37v-6.75c0-.75-.223-1.351-.67-1.807-.44-.464-1.01-.696-1.71-.696-.764 0-1.37.252-1.818.757-.448.496-.672 1.204-.672 2.124V18h-3.381V.495h3.381zm23.107 12.5h-8.874c.13.667.484 1.233 1.062 1.697.578.456 1.306.684 2.185.684a4.2 4.2 0 001.758-.367c.545-.252.927-.504 1.147-.757l.354-.378 1.746 2.246-.22.22a6.73 6.73 0 01-.659.525 8.325 8.325 0 01-1.062.659c-.375.187-.863.354-1.465.5a7.672 7.672 0 01-1.843.22c-1.799 0-3.333-.622-4.602-1.867-1.27-1.254-1.905-2.755-1.905-4.505s.627-3.247 1.88-4.492c1.253-1.253 2.755-1.88 4.505-1.88 1.749 0 3.206.586 4.37 1.758 1.163 1.164 1.745 2.62 1.745 4.37l-.122 1.367zm-4.187-3.98c-.488-.423-1.09-.634-1.806-.634-.717 0-1.327.207-1.831.622-.497.415-.847.957-1.05 1.624h5.627a2.767 2.767 0 00-.94-1.611z" fill="#000"/></svg>