<svg width="36" height="36" fill="none" xmlns="http://www.w3.org/2000/svg"><circle cx="18" cy="18" r="17.5" stroke="#000" stroke-opacity=".1"/><g clip-path="url(#clip0)" fill="#000"><path d="M25.666 16.735c-.85-3.039-2.947-5.245-4.984-5.245a2.73 2.73 0 00-.487.043.324.324 0 00-.256.405l.42 1.501c.04.145.18.243.325.236h.033c.756 0 2.137 1.132 2.841 3.65.028.1.055.201.08.308a3.68 3.68 0 00-2.587-.244 3.632 3.632 0 00-2.516 4.47 3.638 3.638 0 003.49 2.651c.33 0 .66-.045.98-.135 1.27-.355 2.225-1.41 2.689-2.969.419-1.406.408-3.109-.028-4.67zm-13.385-5.244c-.163 0-.327.014-.486.042a.323.323 0 00-.256.406l.42 1.5c.04.146.177.243.325.237h.033c.756 0 2.137 1.132 2.841 3.65.028.1.055.202.08.308a3.68 3.68 0 00-2.587-.244 3.631 3.631 0 00-2.516 4.47 3.638 3.638 0 003.49 2.65c.33 0 .66-.045.98-.134 1.27-.355 2.225-1.41 2.69-2.97.418-1.406.407-3.108-.03-4.67-.85-3.039-2.946-5.245-4.984-5.245z"/></g><defs><clipPath id="clip0"><path fill="#fff" transform="translate(10 10)" d="M0 0h16v16H0z"/></clipPath></defs></svg>