<svg width="29" height="29" fill="none" xmlns="http://www.w3.org/2000/svg"><circle cx="14.793" cy="14.653" r="13.95" fill="#3B5998"/><g clip-path="url(#clip0)"><path d="M16.867 8.998L15.4 8.996c-1.648 0-2.713 1.093-2.713 2.785v1.283h-1.474a.23.23 0 00-.231.231v1.86a.23.23 0 00.23.231h1.475v4.694c0 .127.104.23.231.23h1.924a.23.23 0 00.23-.23v-4.694h1.725a.23.23 0 00.23-.23l.002-1.86a.231.231 0 00-.231-.232h-1.725v-1.088c0-.523.124-.789.806-.789h.988a.23.23 0 00.23-.23V9.228a.23.23 0 00-.23-.23z" fill="#fff"/></g><defs><clipPath id="clip0"><path fill="#fff" transform="translate(8.384 8.996)" d="M0 0h11.311v11.315H0z"/></clipPath></defs></svg>