<svg width="28" height="29" fill="none" xmlns="http://www.w3.org/2000/svg"><circle cx="13.95" cy="14.599" r="13.95" fill="url(#paint0_linear)"/><path d="M16.485 9.01h-5.069a3.124 3.124 0 00-3.121 3.119v5.064c0 1.72 1.4 3.12 3.121 3.12h5.069c1.72 0 3.121-1.4 3.121-3.12V12.13c0-1.72-1.4-3.12-3.122-3.12zm2.118 8.183a2.12 2.12 0 01-2.118 2.117h-5.069A2.12 2.12 0 019.3 17.193V12.13a2.12 2.12 0 012.117-2.116h5.069a2.12 2.12 0 012.117 2.116v5.064z" fill="#fff"/><path d="M13.95 11.75a2.916 2.916 0 00-2.914 2.911 2.916 2.916 0 002.915 2.911 2.916 2.916 0 002.914-2.91 2.916 2.916 0 00-2.914-2.912zm0 4.82a1.912 1.912 0 01-1.91-1.909 1.912 1.912 0 013.822 0 1.912 1.912 0 01-1.911 1.909zm3.036-5.67a.739.739 0 00-.736.737.741.741 0 00.736.736.743.743 0 00.521-.215.74.74 0 000-1.042.739.739 0 00-.52-.216z" fill="#fff"/><defs><linearGradient id="paint0_linear" x1="0" y1="40.237" x2="23.753" y2="-2.745" gradientUnits="userSpaceOnUse"><stop offset=".204" stop-color="#FFD474"/><stop offset=".403" stop-color="#E34E52"/><stop offset=".663" stop-color="#BF318F"/><stop offset="1" stop-color="#525ACF"/></linearGradient></defs></svg>