<svg width="28" height="29" fill="none" xmlns="http://www.w3.org/2000/svg"><circle cx="14.05" cy="14.653" r="13.95" fill="#4D76A1"/><g clip-path="url(#clip0)"><path d="M19.642 17.804a.822.822 0 00-.041-.079c-.21-.377-.61-.84-1.2-1.388l-.012-.013-.007-.006-.006-.006h-.006a7.22 7.22 0 01-.509-.516c-.13-.167-.16-.337-.088-.508.05-.13.239-.404.565-.823.172-.222.308-.4.409-.534.724-.963 1.038-1.579.942-1.847l-.038-.063c-.025-.037-.09-.072-.194-.103a.99.99 0 00-.402-.016l-1.81.013a.235.235 0 00-.125.003l-.082.019-.031.015-.025.02a.281.281 0 00-.07.065.435.435 0 00-.062.11c-.197.507-.421.978-.672 1.413-.155.26-.298.485-.428.676-.13.19-.238.33-.326.42-.088.09-.168.163-.239.217-.071.055-.126.078-.163.07a4.271 4.271 0 01-.107-.026.418.418 0 01-.141-.154.69.69 0 01-.073-.245 2.697 2.697 0 01-.018-.556c.004-.13.006-.217.006-.264 0-.159.003-.331.01-.518.005-.186.01-.334.015-.442.004-.11.006-.225.006-.346 0-.121-.007-.217-.022-.286a.976.976 0 00-.066-.201.338.338 0 00-.128-.15.726.726 0 00-.21-.086 4.18 4.18 0 00-.849-.081c-.779-.009-1.28.042-1.501.15a.848.848 0 00-.239.189c-.075.092-.086.143-.031.15.25.038.429.129.534.27l.037.076c.03.055.059.151.088.29.03.137.048.29.057.458.02.306.02.567 0 .785a9.28 9.28 0 01-.06.509 1.017 1.017 0 01-.16.433.107.107 0 01-.032.032.47.47 0 01-.17.031c-.058 0-.129-.03-.213-.088a1.504 1.504 0 01-.26-.242 3.23 3.23 0 01-.305-.43 7.491 7.491 0 01-.352-.653l-.1-.183a15.701 15.701 0 01-.258-.511 9.84 9.84 0 01-.289-.65.414.414 0 00-.15-.202l-.032-.019a.665.665 0 00-.245-.094l-1.721.013c-.176 0-.295.04-.358.12l-.025.037a.204.204 0 00-.02.1.5.5 0 00.038.17c.252.59.525 1.16.82 1.708.295.55.552.991.77 1.326.217.335.44.651.665.948.227.298.376.488.45.572.073.084.13.147.172.189l.157.15c.1.1.248.221.443.361.195.14.41.279.647.415.237.136.512.247.826.333.315.086.62.12.918.104h.722a.5.5 0 00.333-.138l.025-.032a.417.417 0 00.047-.116.638.638 0 00.022-.173c-.004-.18.01-.342.04-.486.032-.145.068-.254.108-.327a.804.804 0 01.242-.276.41.41 0 01.05-.023c.1-.033.219 0 .355.098.136.098.264.22.383.364.12.145.263.307.43.487.168.18.314.314.44.402l.126.076c.083.05.192.096.326.138a.705.705 0 00.352.031l1.608-.025a.73.73 0 00.37-.078c.089-.053.14-.11.158-.173a.487.487 0 00.003-.214.788.788 0 00-.044-.166z" fill="#fff"/></g><defs><clipPath id="clip0"><path fill="#fff" transform="translate(7.64 8.996)" d="M0 0h12.065v12.067H0z"/></clipPath></defs></svg>