<svg width="46" height="46" fill="none" xmlns="http://www.w3.org/2000/svg"><circle cx="23" cy="23" r="22.5" stroke="#000" stroke-opacity=".1"/><g clip-path="url(#clip0)"><path d="M32.795 21.384c-1.086-3.883-3.765-6.702-6.369-6.702-.209 0-.418.018-.621.054a.415.415 0 00-.328.518l.537 1.918c.051.185.23.31.415.302l.043-.001c.966 0 2.73 1.447 3.63 4.664.036.127.07.258.102.394a4.701 4.701 0 00-3.306-.312 4.64 4.64 0 00-3.215 5.712 4.649 4.649 0 004.46 3.387 4.65 4.65 0 001.251-.172c1.623-.454 2.844-1.802 3.437-3.794.535-1.797.521-3.973-.036-5.968z" fill="url(#paint0_linear)"/><path d="M15.693 14.683c-.21 0-.418.017-.622.053a.414.414 0 00-.327.519l.537 1.917c.051.185.226.31.415.302h.043c.965 0 2.73 1.447 3.63 4.663.036.128.07.26.102.394a4.701 4.701 0 00-3.306-.311 4.64 4.64 0 00-3.215 5.712 4.649 4.649 0 004.46 3.387c.422 0 .843-.058 1.252-.173 1.623-.454 2.843-1.801 3.436-3.793.535-1.798.522-3.973-.036-5.969-1.087-3.883-3.765-6.701-6.37-6.701z" fill="url(#paint1_linear)"/></g><defs><linearGradient id="paint0_linear" x1="28.367" y1="14.682" x2="28.367" y2="31.318" gradientUnits="userSpaceOnUse"><stop stop-color="#FFDF68"/><stop offset="1" stop-color="#F4BE5B"/></linearGradient><linearGradient id="paint1_linear" x1="17.634" y1="14.683" x2="17.634" y2="31.319" gradientUnits="userSpaceOnUse"><stop stop-color="#FFDF68"/><stop offset="1" stop-color="#F4BE5B"/></linearGradient><clipPath id="clip0"><path fill="#fff" transform="translate(12.778 12.778)" d="M0 0h20.444v20.444H0z"/></clipPath></defs></svg>