<svg width="18" height="18" fill="none" xmlns="http://www.w3.org/2000/svg"><g clip-path="url(#clip0)" fill="#fff"><path d="M17.367 10.42c.537-4.52-.258-7.375-1.692-8.665v-.001c-2.314-2.204-10.13-2.53-12.9.099-1.243 1.286-1.681 3.174-1.73 5.51-.047 2.339-.104 6.718 3.977 7.906h.003l-.003 1.814s-.028.735.441.883c.537.174.78-.167 2.45-2.162 2.794.242 4.939-.313 5.182-.394.564-.19 3.756-.611 4.272-4.99zm-9.178 4.107S6.42 16.731 5.87 17.304c-.18.186-.377.168-.374-.2 0-.243.014-3.013.014-3.013-3.46-.991-3.256-4.72-3.219-6.67.038-1.952.395-3.55 1.448-4.627 2.429-2.278 9.282-1.768 11.028-.127 2.134 1.892 1.375 7.238 1.38 7.42-.44 3.656-3.026 3.887-3.501 4.046-.203.067-2.09.552-4.458.394z"/><path d="M9.167 3.222c-.289 0-.289.45 0 .454 2.24.017 4.085 1.579 4.105 4.443 0 .302.443.298.439-.004-.025-3.086-2.04-4.876-4.544-4.893z"/><path d="M12.113 7.645c-.006.298.435.313.439.01.037-1.701-1.012-3.103-2.984-3.251-.289-.021-.319.433-.031.454 1.71.13 2.61 1.297 2.576 2.787zm-.472 1.935c-.37-.215-.748-.081-.904.13l-.326.422c-.166.214-.475.186-.475.186C7.676 9.72 7.07 7.354 7.07 7.354s-.028-.32.179-.492l.408-.337c.204-.162.333-.552.125-.935-.555-1.003-.928-1.349-1.117-1.614-.2-.25-.5-.306-.812-.138h-.007c-.648.38-1.359 1.09-1.131 1.821.387.771 1.1 3.23 3.37 5.086 1.068.878 2.757 1.778 3.474 1.986l.007.01c.706.236 1.393-.502 1.76-1.17v-.005c.163-.324.109-.63-.129-.83-.421-.41-1.057-.865-1.557-1.156z"/><path d="M9.877 6.078c.72.042 1.07.418 1.107 1.192.014.302.453.28.439-.021-.048-1.01-.575-1.572-1.522-1.625-.29-.017-.316.437-.024.454z"/></g><defs><clipPath id="clip0"><path fill="#fff" d="M0 0h18v18H0z"/></clipPath></defs></svg>