<svg width="15" height="15" fill="none" xmlns="http://www.w3.org/2000/svg"><path d="M.443 7.185L7.189.439A1.51 1.51 0 018.25 0h5.25A1.5 1.5 0 0115 1.5v5.25c0 .416-.169.791-.443 1.061l-6.75 6.75a1.494 1.494 0 01-2.118 0l-5.25-5.25a1.5 1.5 0 01.004-2.126zM12.375 3.75c.623 0 1.125-.502 1.125-1.125S12.998 1.5 12.375 1.5s-1.125.502-1.125 1.125.502 1.125 1.125 1.125z" fill="url(#paint0_linear)"/><defs><linearGradient id="paint0_linear" x1="7.5" y1="0" x2="7.5" y2="15" gradientUnits="userSpaceOnUse"><stop stop-color="#FFDF68"/><stop offset="1" stop-color="#F4BE5B"/></linearGradient></defs></svg>