<svg width="15" height="15" fill="none" xmlns="http://www.w3.org/2000/svg"><g clip-path="url(#clip0)"><path d="M14.695 11.268L9.39 1.502A2.181 2.181 0 007.5.425c-.784 0-1.491.403-1.892 1.077l-.008.015-5.287 9.735a2.176 2.176 0 00-.021 2.21 2.176 2.176 0 001.912 1.113h10.563c.8 0 1.545-.416 1.941-1.112a2.168 2.168 0 00-.012-2.195zM6.62 4.897a.88.88 0 111.76 0v3.52a.88.88 0 01-1.76 0v-3.52zm.88 7.918c-.728 0-1.32-.592-1.32-1.32 0-.727.592-1.32 1.32-1.32.728 0 1.32.593 1.32 1.32 0 .728-.592 1.32-1.32 1.32z" fill="url(#paint0_linear)"/></g><defs><linearGradient id="paint0_linear" x1="7.5" y1=".425" x2="7.5" y2="14.575" gradientUnits="userSpaceOnUse"><stop stop-color="#FFDF68"/><stop offset="1" stop-color="#F4BE5B"/></linearGradient><clipPath id="clip0"><path fill="#fff" d="M0 0h15v15H0z"/></clipPath></defs></svg>