<svg width="15" height="15" fill="none" xmlns="http://www.w3.org/2000/svg"><path d="M6.563 4.687V3.75H.938A.939.939 0 000 4.687v1.875h6.76a8.394 8.394 0 01-.197-1.875zm8.399 3.75c-.64.985-1.615 1.824-3.012 2.626a1.412 1.412 0 01-1.397.002C9.155 10.26 8.18 9.422 7.54 8.437H0v4.688c0 .517.42.937.938.937h13.124c.518 0 .938-.42.938-.937V8.437h-.038zM4.219 11.25H2.344a.469.469 0 010-.938h1.875a.469.469 0 010 .938z" fill="#333"/><path d="M14.716 2.382L11.435.976a.47.47 0 00-.37 0L7.782 2.382a.468.468 0 00-.283.43v1.875c0 2.58.953 4.087 3.517 5.564a.47.47 0 00.466 0C14.047 8.777 15 7.27 15 4.687V2.812a.467.467 0 00-.284-.43zm-1.693 2.13l-1.875 2.344a.474.474 0 01-.367.175h-.02a.47.47 0 01-.37-.208l-.937-1.406a.468.468 0 11.78-.52l.582.873 1.474-1.843a.469.469 0 01.733.585z" fill="#333"/></svg>