<svg width="13" height="13" fill="none" xmlns="http://www.w3.org/2000/svg"><path d="M3.038 2.636L8.221 1.22 7.946.666a.73.73 0 00-.978-.33l-4.64 2.3h.71zM9.83 1.262a.73.73 0 00-.194.026l-1.217.333-3.718 1.015h6.06l-.228-.835a.729.729 0 00-.704-.54zm1.691 1.884H.731a.729.729 0 00-.731.73v8.133c0 .403.327.73.73.73h10.79a.73.73 0 00.73-.73V9.973H7.918c-.684 0-1.24-.556-1.24-1.241V7.109c0-.336.134-.641.351-.865a1.228 1.228 0 01.888-.375h4.333V3.876a.728.728 0 00-.729-.73z" fill="#333"/><path d="M12.762 6.567a.73.73 0 00-.492-.191H7.918a.73.73 0 00-.73.73V8.73c0 .403.327.73.73.73h4.353a.744.744 0 00.491-.19.727.727 0 00.238-.54V7.106a.727.727 0 00-.238-.539zm-3.32 1.496a.365.365 0 01-.364.365h-.243a.365.365 0 01-.365-.365v-.242a.369.369 0 01.365-.365h.242c.202 0 .365.163.365.365v.242z" fill="#333"/></svg>